<svg xmlns="http://www.w3.org/2000/svg" viewBox="0 0 192 192">
  <rect width="192" height="192" rx="32" fill="#1a3a5c"/>
  <g transform="translate(28,52) scale(8.5)" fill="white">
    <path d="M0 3.5A1.5 1.5 0 0 1 1.5 2h9A1.5 1.5 0 0 1 12 3.5V5h1.02a1.5 1.5 0 0 1 1.17.563l1.481 1.85a1.5 1.5 0 0 1 .329.938V10.5a1.5 1.5 0 0 1-1.5 1.5H14a2 2 0 1 1-4 0H5a2 2 0 1 1-3.998-.085A1.5 1.5 0 0 1 0 10.5zm1.5-1a.5.5 0 0 0-.5.5v7a.5.5 0 0 0 .5.5H2a2 2 0 1 1 4 0h4a2 2 0 1 1 4 0h.5a.5.5 0 0 0 .5-.5V8.35a.5.5 0 0 0-.11-.312l-1.48-1.85A.5.5 0 0 0 13.02 6H12V3.5a.5.5 0 0 0-.5-.5h-9zm1 7.5a1 1 0 1 0-2 0 1 1 0 0 0 2 0m9 0a1 1 0 1 0-2 0 1 1 0 0 0 2 0"/>
  </g>
</svg>
